 <svg xmlns="http://www.w3.org/2000/svg" width="26" height="26" version="1">
      <path
        fill="#FFF"
        stroke="#000"
        strokeLinecap="square"
        strokeLinejoin="round"
        d="M17 18.5a4 4 0 11-8 0 4 4 0 118 0z"
      ></path>
      <path
        fill="#FFF"
        stroke="#000"
        strokeLinejoin="round"
        d="M4 16.5v-6l14-1c5.995-.428 5.995 8.428 0 8z"
        color="#000"
        enableBackground="accumulate"
      ></path>
      <path
        fill="#FFF"
        stroke="#000"
        strokeLinecap="square"
        strokeLinejoin="round"
        d="M5.5 13.5a1.5 3 0 11-3 0 1.5 3 0 113 0zM19 18.5a4 4 0 11-8 0 4 4 0 118 0z"
      ></path>
      <path
        fill="none"
        stroke="#000"
        d="M21 13.5c6 2-1 4 1 7"
        color="#000"
        enableBackground="accumulate"
      ></path>
    </svg>