<svg
      xmlns="http://www.w3.org/2000/svg"
      width="45"
      height="45"
      viewBox="0 0 11.906 11.906"
    >
      <g stroke="#000" strokeWidth="1.5">
        <g
          fill="#fff"
          strokeLinejoin="round"
          transform="translate(0 -285.09) translate(-.475 283.81) scale(.28599)"
        >
          <circle cx="22.5" cy="13.5" r="2.5"></circle>
          <path d="M11.5 37c5.5 3.5 15.5 3.5 21 0v-7s9-4.5 6-11c-5.5-7-26.5-7-32 0-3 6.5 5 10.5 5 10.5z"></path>
        </g>
        <g fill="none" strokeLinecap="round">
          <path
            d="M11.5 30c5.5-3 15.5-3 21 0M11.5 33.5c5.5-3 15.5-3 21 0M11.5 37c5.5-3 15.5-3 21 0"
            transform="translate(0 -285.09) translate(-.475 283.81) scale(.28599)"
          ></path>
        </g>
      </g>
    </svg>