<svg viewBox="0 0 500 500" xmlns="http://www.w3.org/2000/svg">
  <defs></defs>
  <path style="stroke-width: 16px; paint-order: fill; stroke: rgb(0, 0, 0); fill: rgb(255, 255, 255);" d="M 245.668 247.953 C 245.668 247.953 183.135 233.801 192.236 212.773 C 236.125 195.218 232.463 151.368 232.463 151.368 C 232.463 151.368 225.368 76.85 167.917 76.149 C 110.466 75.447 59.869 139.328 133.674 206.803 C 133.674 206.803 136.518 224.917 122.512 229.208 C 108.504 233.499 -14.982 345.817 162.789 419.785 C 355.542 454.457 415.313 307.825 424.16 288.837 C 462.353 170.372 405.786 174.836 352.964 218.16 C 303.468 264.659 256.103 245.784 245.668 247.953 Z"></path>
  <ellipse style="stroke: rgb(0, 0, 0);" cx="145.32" cy="138.517" rx="13.025" ry="12.185"></ellipse>
  <path style="stroke: rgb(0, 0, 0); fill: rgb(255, 255, 255); stroke-width: 16px;" d="M 101.369 147.989 C 101.369 147.989 59.392 160.052 54.007 163.509 C 48.622 166.966 73.304 185.562 102.587 186.979 C 131.87 188.396 124.27 172.507 124.27 172.507 L 101.369 147.989 Z"></path>
  <path style="stroke: rgb(0, 0, 0); stroke-width: 16px; fill: rgb(255, 255, 255);" d="M 240.496 295.33 C 240.496 295.33 198.45 281.557 174.126 297.992 C 149.802 314.427 160.035 351.879 179.427 367.646 C 198.819 383.413 324.566 392.206 357.336 298.719 C 370.893 233.481 317.801 289.27 293.088 296.338 C 268.375 303.406 251.82 296.481 240.496 295.33 Z"></path>
  <path style="stroke: rgb(0, 0, 0); fill: none; stroke-width: 16px; stroke-linecap: round;" d="M 356.72 294.304 C 356.72 294.304 314.602 328.194 288.372 330.538"></path>
</svg>