<svg
      xmlns="http://www.w3.org/2000/svg"
      xmlnsXlink="http://www.w3.org/1999/xlink"
      width="26"
      height="26"
    >
      <path
        fill="#FFF"
        stroke="#000"
        d="M13 6.5c3.808 0 4.5 11 4.5 11-3.5 1.5-5.5 1.5-9 0 0 0 .692-11 4.5-11z"
        color="#000"
        enableBackground="accumulate"
      ></path>
      <path
        fill="#FFF"
        stroke="#000"
        d="M7.5 21c-.592 1.975 1.523 2.5 5.5 2.5s6.092-.525 5.5-2.5c-1.5-5-2.543-3.5-5.5-3.5S9 16 7.5 21z"
        color="#000"
        enableBackground="accumulate"
      ></path>
      <use
        width="26"
        height="26"
        transform="matrix(-1 0 0 1 26 0)"
        xlinkHref="#path5381"
      ></use>
      <use
        width="26"
        height="26"
        transform="matrix(-1 0 0 1 26 0)"
        xlinkHref="#path4871"
      ></use>
      <path
        id="path5381"
        fill="#FFF"
        stroke="#000"
        strokeDasharray="none"
        strokeDashoffset="0"
        strokeLinecap="butt"
        strokeLinejoin="miter"
        strokeMiterlimit="4"
        strokeWidth="1"
        d="M3.5 19.5C-3 8 4-4 13 6.5c-.965 4.161-1.112 7.899-4.5 11 0-10-6.5-13.5-5 2z"
        color="#000"
        enableBackground="accumulate"
      ></path>
      <path
        id="path4871"
        fill="#FFF"
        stroke="#000"
        strokeDasharray="none"
        strokeDashoffset="0"
        strokeLinecap="square"
        strokeLinejoin="miter"
        strokeMiterlimit="4"
        strokeWidth="1.099"
        d="M6.54 20.564a2.475 3.05 0 11-4.949 0 2.475 3.05 0 114.95 0z"
        transform="matrix(1.01015 0 0 .81983 -.607 3.64)"
      ></path>
    </svg>