   <svg xmlns="http://www.w3.org/2000/svg" width="45" height="45" version="1">
      <g
        stroke="#000"
        strokeDasharray="none"
        strokeMiterlimit="4"
        strokeOpacity="1"
        display="inline"
      >
        <path
          fill="#fff"
          fillOpacity="1"
          fillRule="evenodd"
          strokeLinecap="butt"
          strokeLinejoin="round"
          strokeWidth="1.5"
          d="M36 36c-3.385-.972-10.115.43-13.5-2-3.385 2.43-10.115 1.028-13.5 2 0 0-1.646.542-3 2 .677.972 1.646.986 3 .5 3.385-.972 10.115.458 13.5-1 3.385 1.458 10.115.028 13.5 1 1.354.486 2.323.472 3-.5-1.354-1.945-3-2-3-2z"
        ></path>
        <path
          fill="#fff"
          fillOpacity="1"
          fillRule="evenodd"
          strokeLinecap="butt"
          strokeLinejoin="round"
          strokeWidth="1.5"
          d="M30 32c-2.5 2.5-12.5 2.5-15 0-.5-1.5 0-2 0-2h15s.5.5 0 2z"
        ></path>
        <path
          fill="none"
          fillOpacity="0.75"
          fillRule="evenodd"
          strokeLinecap="butt"
          strokeLinejoin="miter"
          strokeWidth="1.5"
          d="M30 30H15"
        ></path>
        <g
          strokeLinecap="round"
          transform="rotate(180 18.603 17.59) scale(.76542)"
        >
          <path
            fill="#fff"
            fillOpacity="1"
            fillRule="evenodd"
            strokeLinejoin="miter"
            strokeWidth="1.5"
            d="M22.029 36c-10.5-1-16.5-8-16-29h23c0 9-10 6.5-8 21"
          ></path>
          <path
            fill="#fff"
            fillOpacity="1"
            fillRule="evenodd"
            strokeLinejoin="round"
            strokeWidth="1.5"
            d="M20.029 28c-.385-2.911 5.553-7.369 8-9 3-2 2.82-4.343 5-4 1.042.944-1.413 3.038 0 3 1 0-.187-1.232 1-2 1 0 4.003-1 4 4 0 2-6 12-6 12s-1.886 1.902-2 3.5c.726.994.5 2 .5 3-1 1-3-2.5-3-2.5h-2s-.782 1.992-2.5 3c-1 0-1-3-1-3"
          ></path>
          <path
            fill="#000"
            fillOpacity="1"
            strokeLinejoin="round"
            strokeWidth="1.5"
            d="M34.529 20.5a.5.5 0 111 0 .5.5 0 11-1 0z"
            opacity="1"
          ></path>
          <path
            fill="#000"
            fillOpacity="1"
            strokeLinejoin="round"
            strokeWidth="1.5"
            d="M29.096 30.25a1.5.5-60 11.866.5 1.5.5-60 11-.866-.5z"
            opacity="1"
          ></path>
          <path
            fill="none"
            fillOpacity="0.75"
            fillRule="evenodd"
            strokeLinejoin="miter"
            strokeWidth="1"
            d="M7.029 7c-1 20 5.5 27.5 12 28.5"
          ></path>
        </g>
      </g>
    </svg>