   <svg
      xmlns="http://www.w3.org/2000/svg"
      width="45"
      height="45"
      version="1.1"
    >
      <g
        fillOpacity="1"
        fillRule="evenodd"
        stroke="#000"
        strokeDasharray="none"
        strokeLinecap="round"
        strokeLinejoin="round"
        strokeMiterlimit="4"
        strokeOpacity="1"
        strokeWidth="1.5"
        transform="matrix(.9161 0 0 .79824 57.449 13.316)"
      >
        <path
          fill="#fff"
          d="M-38 10c10.5 1 16.5 8 16 29h-23c0-9 10-6.5 8-21"
        ></path>
        <path
          fill="#fff"
          d="M-36 18c.38 2.91-5.55 7.37-8 9-3 2-2.82 4.34-5 4-1.042-.94 1.41-3.04 0-3-1 0 .19 1.23-1 2-1 0-4.003 1-4-4 0-2 6-12 6-12s1.89-1.9 2-3.5c-.73-.994-.5-2-.5-3 1-1 3 2.5 3 2.5h2s.78-1.992 2.5-3c1 0 1 3 1 3"
        ></path>
        <path fill="#000" d="M-50.5 25.5a.5.5 0 01-1 0 .5.5 0 111 0z"></path>
        <path
          fill="#000"
          d="M-45.067 15.75a.5 1.5 30 01-.866-.5.5 1.5 30 01.866.5z"
        ></path>
      </g>
      <g
        fillOpacity="1"
        fillRule="evenodd"
        stroke="#000"
        strokeDasharray="none"
        strokeMiterlimit="4"
        strokeOpacity="1"
        strokeWidth="1.5"
        transform="translate(-60)"
      >
        <path
          fill="none"
          strokeLinecap="round"
          strokeLinejoin="miter"
          d="M82.5 6.33V.7"
        ></path>
        <path
          fill="none"
          strokeLinecap="round"
          strokeLinejoin="miter"
          d="M80 2.7h5"
        ></path>
        <path
          fill="#fff"
          strokeLinecap="butt"
          strokeLinejoin="miter"
          d="M82.5 19.7s4.5-7.5 3-10.5c0 0-1-2.5-3-2.5s-3 2.5-3 2.5c-1.5 3 3 10.5 3 10.5"
        ></path>
        <path
          fill="#fff"
          strokeLinecap="round"
          strokeLinejoin="round"
          d="M98.5 14.2c-4-6.5-13.5-3.5-16 4v3.5-3.5c-3.5-7.5-13-10.5-16-4-3 6 5 10 5 10 5.5-3 15.5-3 21 0 0 0 9-4 6-10z"
        ></path>
      </g>
    </svg>