 <svg xmlns="http://www.w3.org/2000/svg" width="26" height="26" version="1">
      <path
        fill="#FFF"
        fillRule="evenodd"
        stroke="#000"
        strokeLinecap="round"
        d="M14 29.5c.222 1.68-3.09 4.06-4.5 5-1.73 1.16-1.74 2.7-3 2.5-.602-.545.817-2.02 0-2-.58 0 .19 1.1-.5 1.5-.58 0-2.5.4-2.5-2.5 0-1.2 3.5-6.5 3.5-6.5s.934-1.08 1-2c-.419-.575-.258-1.48 0-2 .365-.731 1.5 1.5 1.5 1.5h1s.5-1.5 1.5-2c.517-.258.5 2 .5 2 6.07.578 9.29 4.37 9 16.5H9c0-4.9 4.8-3.7 4.5-10.5"
        transform="rotate(180 13 22.5)"
      ></path>
      <path
        d="M5.5 33.5a.5.5 0 11-1 0 .5.5 0 111 0z"
        transform="rotate(180 13 22.5)"
      ></path>
      <path
        fill="none"
        stroke="#000"
        strokeLinecap="round"
        strokeWidth="0.578"
        d="M21.4 41.5c.6-11.5-3.2-15.9-7-16.4"
        transform="rotate(180 13 22.5)"
      ></path>
      <path
        d="M9.188 29.377a.744 1.066 30 11-1.289-.744.744 1.066 30 011.289.744z"
        transform="rotate(180 13 22.5)"
      ></path>
    </svg>