<svg xmlns="http://www.w3.org/2000/svg" width="26" height="26" version="1">
      <path
        fill="#FFF"
        fillRule="evenodd"
        stroke="#000"
        strokeLinecap="round"
        d="M14 29.5c.222 1.68-3.09 4.06-4.5 5-1.73 1.16-1.74 2.7-3 2.5-.602-.545.817-2.02 0-2-.58 0 .19 1.1-.5 1.5-.58 0-2.5.4-2.5-2.5 0-1.2 3.5-6.5 3.5-6.5s.934-1.08 1-2c-.419-.575-.258-1.48 0-2 .365-.731 1.5 1.5 1.5 1.5h1s.5-1.5 1.5-2c.517-.258.5 2 .5 2 4.79.456 8.5 4 9.5 12l-5 6-5-6c1-2 1.578-4.224 1.5-6"
        transform="translate(0 -19)"
      ></path>
      <path
        d="M5.5 33.5a.5.5 0 11-1 0 .5.5 0 111 0zM9.235 28.78a.799 1.144 30 11-1.383-.798.799 1.144 30 111.383.799z"
        transform="translate(0 -19)"
      ></path>
      <path
        fill="none"
        stroke="#000"
        d="M12 18l7.664-7.664M13 14l5-5M13.166 19.834l7.375-7.375"
        color="#000"
        enableBackground="accumulate"
      ></path>
    </svg>