<svg xmlns="http://www.w3.org/2000/svg" width="26" height="26" version="1">
      <path
        fill="#FFF"
        fillRule="evenodd"
        stroke="#000"
        strokeLinecap="round"
        strokeWidth="1.32"
        d="M14.44 29.5c.222 1.68-3.09 4.06-4.5 5-1.73 1.16-1.74 2.7-3 2.5-.602-.545.817-2.02 0-2-.58 0 .19 1.1-.5 1.5-.58 0-2.5.4-2.5-2.5 0-1.2 3.5-6.5 3.5-6.5s.934-1.08 1-2c-.419-.575-.258-1.48 0-2 .365-.731 1.5 1.5 1.5 1.5h1s.5-1.5 1.5-2c.517-.258.5 2 .5 2 6.07.578 9.29 4.37 9 16.5H9.44c0-4.9 4.8-3.7 4.5-10.5"
        transform="matrix(.75758 0 0 .75758 1.348 -13.94)"
      ></path>
      <path
        d="M5.5 33.5a.5.5 0 11-1 0 .5.5 0 111 0zM10.1 30.28a1.028 1.473 30 01-1.78-1.028 1.028 1.473 30 011.78 1.028z"
        transform="matrix(.75758 0 0 .75758 1.348 -13.94)"
      ></path>
      <g fill="#FFF" stroke="#000">
        <g color="#000">
          <path
            d="M28.5 4.5v3h15v-3h-3v1h-3v-1h-3v1h-3v-1zM29 7.5l2 3h9.5l2.5-3h-7z"
            enableBackground="accumulate"
            transform="translate(-23 13.5) rotate(180 36 7.25)"
          ></path>
        </g>
      </g>
    </svg>