    <svg xmlns="http://www.w3.org/2000/svg" width="26" height="26">
      <path
        fill="#FFF"
        stroke="#000"
        strokeLinecap="round"
        d="M11.5 8.5C9 9.5 9 12 9 12c0 1 0 2 1 3-2 1-3.5 1.95-3.5 7.5h13C19.5 17 18 16 16 15c1-1 1-2 1-3 0 0-.004-2.49-2.5-3.5z"
      ></path>
      <path
        fill="#FFF"
        stroke="#000"
        strokeLinecap="square"
        strokeWidth="1"
        d="M19.5 7a3.5 3.5 0 11-7 0 3.5 3.5 0 117 0z"
      ></path>
      <path
        fill="#FFF"
        stroke="#000"
        strokeLinecap="square"
        strokeWidth="1"
        d="M13.5 7a3.5 3.5 0 11-7 0 3.5 3.5 0 117 0z"
      ></path>
    </svg>