    <svg xmlns="http://www.w3.org/2000/svg" width="26" height="26">
      <g stroke="#000" strokeLinejoin="round">
        <g fill="#FFF" strokeWidth="1.731">
          <path
            d="M22.5 34.615c-2.25 1.558-5.885 2.597-8.654 2.597-2.838 0-4.742 1.73-6.923 4.326 1.73 0 4.967-.865 7.789-.865 2.769 0 5.711 0 7.788-.865 2.077.865 5.02.865 7.788.865s6.058.865 7.789.865c-2.25-2.596-4.154-4.326-6.923-4.326s-6.404-1.039-8.654-2.597z"
            transform="scale(.57778)"
          ></path>
          <path
            d="M19.038 6.923C15.577 3.462 5.192 13.846 8.654 17.308l8.654 8.654s-3.462 2.596-1.731 4.326c0 0-1.73 1.731 0 3.462 1.229 1.212 3.461.865 6.923.865s5.712.347 6.923-.865c1.73-1.73 0-3.462 0-3.462 1.73-1.73-1.73-4.326-1.73-4.326 2.157-.607 4.17-6.214 1.73-8.654z"
            transform="scale(.57778)"
          ></path>
        </g>
        <path
          fill="none"
          strokeLinecap="square"
          strokeLinejoin="miter"
          strokeWidth="2.077"
          d="M17.3 26h10.4m-12.1 4.33h13.8"
          transform="scale(.57778)"
        ></path>
      </g>
    </svg>